<?xml version="1.0" encoding="utf-8"?>
<!-- Generator: Adobe Illustrator 26.1.0, SVG Export Plug-In . SVG Version: 6.00 Build 0)  -->
<svg version="1.1" id="Camada_1" xmlns="http://www.w3.org/2000/svg" xmlns:xlink="http://www.w3.org/1999/xlink" x="0px" y="0px"
	 viewBox="0 0 300 300" style="enable-background:new 0 0 300 300;" xml:space="preserve">
<g id="Logotipo" transform="matrix(1.33377, 0, 0, 1.33377, 83.3111, -6.67358)">
	<path d="M117.8,181.9c-13.9,11.5-31.3,17.8-49.3,17.7c-43.4,0-78.8-36-78.8-80.3C-10.3,75,25,39,68.4,39c18,0,35.5,6.3,49.4,17.7
		c0.9,0.7,2.1,0.6,2.9-0.2c0.8-0.8,0.8-2.1,0-2.9c-17.9-19-42.9-29.7-69-29.6c-32,0-61.9,16.1-79.5,42.8
		c-17.6,26.7-20.6,60.5-8,89.9c12.6,29.4,39.2,50.5,70.7,56.2c31.5,5.7,63.8-4.9,85.8-28.1c0.8-0.8,0.8-2.1,0-2.9
		C119.9,181.2,118.7,181.1,117.8,181.9L117.8,181.9z M51.7,210.3c-28.1,0-54.5-13-71.8-35.2c-17.2-22.2-23.2-51-16.3-78.2
		c6.9-27.2,26-49.7,51.7-60.9c25.7-11.3,55.2-10,79.8,3.3c-8.6-3-17.6-4.5-26.7-4.5c-45.8,0-83,37.9-83,84.5s37.2,84.5,83,84.5v0
		c9.1,0,18.1-1.5,26.7-4.5C81.8,206.6,66.9,210.3,51.7,210.3L51.7,210.3z"/>
	<path d="M137,89.6L92,57c-0.5-0.3-1-0.5-1.6-0.4c-0.6,0.1-1.1,0.4-1.4,0.9c-4.2,5.8,3,17,8.4,22.3h0c-1.4,2.6-1.8,5.6-1.3,8.5
		l-78.4-13c-0.6-0.1-1.1,0-1.6,0.4c-0.5,0.3-0.8,0.8-0.9,1.4c-1.7,10.4,16.5,20.8,27,23.9l0,0c-0.6,8.8,4.9,16.9,13.3,19.7
		c-0.5,8.9,5,17,13.5,19.7c-0.6,9.9,6.4,18.7,16.2,20.4l21.1,3.5c2.9,1.8,5.4,4.2,7.2,7.1c1.5,2.3,4.2,3.4,6.8,2.9
		c2.6-0.5,4.6-2.6,5-5.3l4.8-29.1l12.2-16.8v0C150.1,112.2,147.7,97.3,137,89.6L137,89.6z M121.2,168.2c-0.1,0.9-0.8,1.6-1.7,1.8
		c-0.9,0.2-1.9-0.2-2.4-1c-2.3-3.6-5.4-6.6-9.1-8.7c-0.2-0.1-0.4-0.2-0.6-0.2l-21.4-3.6c-7.4-1.2-12.8-7.7-12.6-15.3l26.1,4.3
		c0.1,0,0.2,0,0.3,0c1.1,0,2-0.9,2.1-2c0.1-1.1-0.7-2.1-1.8-2.3l-27.8-4.6c0,0,0,0,0,0c-7.3-1.3-12.6-7.8-12.4-15.3l26.4,4.4
		c0.1,0,0.2,0,0.3,0c1.1,0,2-0.8,2.1-1.9c0.1-1.1-0.7-2.1-1.8-2.3l-27.9-4.6h0c-7.4-1.3-12.7-7.8-12.5-15.3l26.6,4.4v0
		c0.1,0,0.2,0,0.3,0c1.1,0,2-0.8,2.1-1.9s-0.7-2.1-1.8-2.3L46,97.4C37.8,96,21.7,87,19.6,79.8L98.9,93l2.9,0.5
		c8.2,1.4,15.6,5.9,20.4,12.7c4.9,6.8,6.8,15.2,5.5,23.4L121.2,168.2z M138.9,120.5l-7.2,9.9l0-0.1c1.5-9.3-0.7-18.9-6.2-26.6
		c-5.5-7.7-13.9-12.9-23.2-14.4l-1.7-0.3c-0.7-2.1-0.7-4.4,0.2-6.5l13.4,9.7c0.9,0.7,2.3,0.5,3-0.5c0.7-0.9,0.5-2.3-0.5-3L102,78
		l0,0l-0.1,0c-4.1-3-9.5-11.2-9.9-15.8L134.5,93C143.3,99.4,145.3,111.7,138.9,120.5L138.9,120.5z"/>
</g>
</svg>
